<?xml version="1.0" encoding="UTF-8"?>
<svg id="Layer_1" data-name="Layer 1" xmlns="http://www.w3.org/2000/svg" xmlns:xlink="http://www.w3.org/1999/xlink" viewBox="0 0 1454.55 986.18">
  <defs>
    <style>
      .cls-1 {
        fill: #f6eb1f;
      }

      .cls-2, .cls-3, .cls-4, .cls-5, .cls-6, .cls-7, .cls-8, .cls-9, .cls-10, .cls-11, .cls-12, .cls-13, .cls-14 {
        fill-rule: evenodd;
      }

      .cls-2, .cls-15, .cls-16 {
        fill: #fff;
      }

      .cls-3 {
        fill: url(#GradientFill_7-2);
      }

      .cls-4 {
        fill: url(#GradientFill_5-3);
      }

      .cls-5 {
        fill: url(#GradientFill_5-2);
      }

      .cls-6 {
        fill: #c1272d;
      }

      .cls-17 {
        fill: #005da6;
      }

      .cls-18 {
        fill: #ce202f;
      }

      .cls-8 {
        fill: url(#GradientFill_3);
      }

      .cls-9 {
        fill: url(#GradientFill_1);
      }

      .cls-10 {
        fill: url(#GradientFill_5);
      }

      .cls-11 {
        fill: url(#GradientFill_4);
      }

      .cls-12 {
        fill: url(#GradientFill_7);
      }

      .cls-13 {
        fill: url(#GradientFill_6);
      }

      .cls-14 {
        fill: url(#GradientFill_2);
      }

      .cls-16 {
        filter: url(#drop-shadow-1);
      }
    </style>
    <linearGradient id="GradientFill_1" data-name="GradientFill 1" x1="727.04" y1="41.68" x2="727.04" y2="948.93" gradientUnits="userSpaceOnUse">
      <stop offset="0" stop-color="#393b4a"/>
      <stop offset=".21" stop-color="#fff"/>
      <stop offset=".7" stop-color="#fff"/>
      <stop offset="1" stop-color="#393b4a"/>
    </linearGradient>
    <linearGradient id="GradientFill_2" data-name="GradientFill 2" x1="727.05" y1="75.2" x2="727.05" y2="895.86" gradientUnits="userSpaceOnUse">
      <stop offset="0" stop-color="#393b4a"/>
      <stop offset=".24" stop-color="#000"/>
      <stop offset=".71" stop-color="#000"/>
      <stop offset="1" stop-color="#393b4a"/>
    </linearGradient>
    <linearGradient id="GradientFill_3" data-name="GradientFill 3" x1="727" y1="399.88" x2="727.01" y2="301.03" gradientUnits="userSpaceOnUse">
      <stop offset="0" stop-color="#fff"/>
      <stop offset="1" stop-color="#b8c0c7"/>
    </linearGradient>
    <linearGradient id="GradientFill_4" data-name="GradientFill 4" x1="453.64" y1="259.86" x2="453.65" y2="178.54" gradientUnits="userSpaceOnUse">
      <stop offset="0" stop-color="#c1272d"/>
      <stop offset="1" stop-color="#ef373e"/>
    </linearGradient>
    <linearGradient id="GradientFill_5" data-name="GradientFill 5" x1="498.06" y1="259.12" x2="498.06" y2="194.19" gradientUnits="userSpaceOnUse">
      <stop offset="0" stop-color="#b8c0c7"/>
      <stop offset="1" stop-color="#fff"/>
    </linearGradient>
    <linearGradient id="GradientFill_5-2" data-name="GradientFill 5" x1="824.73" y1="259.13" x2="824.73" y2="194.21" xlink:href="#GradientFill_5"/>
    <linearGradient id="GradientFill_6" data-name="GradientFill 6" x1="727.04" y1="328.79" x2="727.04" y2="604.88" gradientUnits="userSpaceOnUse">
      <stop offset="0" stop-color="#c1272d"/>
      <stop offset=".61" stop-color="#000"/>
      <stop offset="1" stop-color="#c1272d"/>
    </linearGradient>
    <linearGradient id="GradientFill_5-3" data-name="GradientFill 5" x1="735.51" y1="372.96" x2="735.52" y2="464.07" xlink:href="#GradientFill_5"/>
    <linearGradient id="GradientFill_7" data-name="GradientFill 7" x1="729.43" y1="436.65" x2="729.43" y2="551.18" gradientUnits="userSpaceOnUse">
      <stop offset="0" stop-color="#393b4a"/>
      <stop offset="1" stop-color="#fff"/>
    </linearGradient>
    <linearGradient id="GradientFill_7-2" data-name="GradientFill 7" x1="727.05" y1="897.05" x2="727.05" y2="790.98" xlink:href="#GradientFill_7"/>
    <filter id="drop-shadow-1" x="534.77" y="20.4" width="353.28" height="115.44" filterUnits="userSpaceOnUse">
      <feOffset dx="0" dy="0"/>
      <feGaussianBlur result="blur" stdDeviation="4.59"/>
      <feFlood flood-color="#231f20" flood-opacity=".95"/>
      <feComposite in2="blur" operator="in"/>
      <feComposite in="SourceGraphic"/>
    </filter>
  </defs>
  <g>
    <path class="cls-7" d="M1320.89,252.67l133.66-7.18-169.48,351.89-41.53,88.98-66.23-4.69-16.84,50.33-433.43,254.18-433.42-254.18-16.82-50.25-66.07,4.55-39.86-79.89L0,245.51l133.2,7.16-4.01-11.99,23.59-15.2c465.72-300.12,683.01-301.15,1148.59.04l23.52,15.22-4,11.94Z"/>
    <path class="cls-6" d="M1305.16,264.64l131.22-7.05-161.38,335.09-38.3,82.05-67.2-4.76-18.31,54.7-424.16,248.42-424.16-248.42-18.27-54.6-67.24,4.63-36.5-73.15L18.02,257.6l130.9,7.04-6.46-19.3,16.33-10.53c462.05-297.75,674.62-298.8,1136.53.03l16.28,10.53-6.45,19.27h0ZM886.82,287.12l299.47-16.09c-369.02-227.95-549.2-227.2-918.28.01l299.26,16.08h319.55ZM406.14,684.17l320.9,199.44,320.71-199.32c-200.49-54.28-441.16-54.63-641.61-.12Z"/>
    <path class="cls-7" d="M163.31,241.82c459.3-295.98,668.3-297.05,1127.49.02l10.86,7.02-8.29,24.76,129.75-6.97-139,306.48-47.42,101.6-14.73-3.03c-19.35-3.98-38.71-7.72-58.08-11.23l-19.65,58.71-417.21,259.3-417.21-259.3-19.61-58.59c-19.39,3.48-38.77,7.18-58.15,11.12l-14.7,2.99-42.12-84.42L31.18,266.66l129.54,6.96-8.29-24.78,10.89-7.02Z"/>
    <path class="cls-2" d="M172.34,255.83l151.39,452.36,403.31,250.66,403.31-250.66,151.4-452.36c-453.7-293.52-655.72-292.36-1109.41,0h0ZM218.85,272.26c414.08-262.27,602.39-263.23,1016.4-.05l-5.65,16.88-1.68,5.03-338.67,18-164.68,5.39-159.73-5.39-338.42-17.25-7.57-22.62h0ZM353.25,673.84c227.8-73.97,519.69-73.47,747.55.09l-2.89,8.62-370.87,230.5-370.87-230.5-2.92-8.71Z"/>
    <path class="cls-9" d="M178.98,258.16l6.17,18.44,29.83,1.6-2.78-8.31,3.68-2.33c415.87-263.4,606.57-264.36,1022.35-.05l3.67,2.33-2.79,8.35,29.83-1.6,6.17-18.45c-50.77-32.77-102.39-64.49-155.3-93.68-45.7-25.21-92.63-48.68-140.98-68.38-80.8-32.93-163.84-54.45-251.55-54.41-87.78.04-170.91,21.66-251.77,54.62-48.38,19.72-95.35,43.19-141.1,68.37-52.94,29.15-104.6,60.8-155.43,93.49h0ZM313.92,661.35l14.45,43.18,398.67,247.78,398.67-247.78,14.5-43.32c-46.47-7.97-93.15-14.6-139.96-19.88,34.52,7.44,68.71,16.49,102.26,27.32l5.34,1.72-5.3,15.84-375.51,233.38-375.51-233.38-5.33-15.92,5.33-1.73c32.22-10.46,65.05-19.25,98.2-26.54-45.43,5.2-90.71,11.66-135.82,19.33Z"/>
    <path class="cls-7" d="M125.76,328.79l78.94,250.32,12.67,95.58-42.12-84.42L31.18,266.66l552.52,29.7-.87,32.44H125.76ZM1328.32,328.79h-457.06l-.87-32.44,552.74-29.71-139,306.48-47.42,101.6,18.1-112.83,73.52-233.11Z"/>
    <path class="cls-14" d="M232.78,277.22l2.16,6.44,330.2,16.83h323.8l330.46-17.57,1.93-5.77c-402.11-254.15-586.35-253.23-988.55.06h0ZM373.54,679.66l353.5,219.7,353.36-219.61c-217.56-65.91-489.37-66.34-706.86-.08Z"/>
    <path class="cls-2" d="M57.48,284.76l126.59,284.34-81.04-256.98h463.57l-509.12-27.36h0ZM1275.43,551.95l121.18-267.18-509.12,27.36h463.57l-75.63,239.82Z"/>
    <path class="cls-8" d="M66.25,290.8l83.07,186.59-53.87-170.82h264.25l-293.44-15.77h0ZM1308.48,465.62l79.29-174.82-293.37,15.77h264.25l-50.16,159.05Z"/>
    <g>
      <path class="cls-7" d="M453.33,278.75h-57.13v-107.78h156.82v107.78h-99.69ZM950.4,239.98v-59.55h31.07v59.55h26.79l24.7-59.55h25.52l37.1,89.47h-33.34l-6.63-16.06h-19.78l-6.64,16.06h-222.12v-21.52l29.56-38.45h-36.93v59.97h-66.59l-15.22-22.82v22.82h-48.52l-6.63-16.06h-19.78l-6.63,16.06h-33.34l10.2-24.59c-6.63,2.97-14.28,3.86-21.42,3.86h-1.92v20.74h-31.06v-89.47h32.78c10.01,0,21.19,1.67,28.95,8.55,5.07,4.49,7.86,10.3,9.15,16.6l10.43-25.15h25.53l21.22,51.17v-51.17h34.62c8.91,0,19.42,1.12,26.99,6.4v-6.4h180.32v59.55h21.66ZM873.65,212.01l-21.78,28.29h21.78v-28.29h0ZM759.76,209.93c.05.91.07,1.83.07,2.74,0,10.34-3.06,19.49-10.35,25.5l19.15,28.18v-56.42h-8.88ZM589.82,209.82v9.85h3.15c1.06,0,4.27-.13,5.06-.69.9-1.05,1.05-3.58,1.05-4.87,0-.52-.09-2.65-.61-3.02-1.49-1.09-5.38-1.26-7.13-1.26h-1.51ZM727.95,215.9c.42-.59.51-2.59.51-3.18,0-.48-.04-1.6-.22-2.24-1.43-.56-4.76-.66-5.98-.66h-4.37v6.87h4.06c1.24,0,4.79-.12,6-.78Z"/>
      <g>
        <path class="cls-2" d="M1067.3,262.33l-6.63-16.06h-29.9l-6.64,16.06h-16.94l30.82-74.33h15.41l30.82,74.33h-16.94ZM591.54,188c10.96,0,18.93,2.22,23.93,6.65,5,4.43,7.5,11.24,7.5,20.42s-2.57,15.9-7.71,20.15c-5.14,4.25-12.98,6.38-23.53,6.38h-9.49v20.74h-15.92v-74.33h25.21ZM592.97,227.24c5.31,0,8.91-1.12,10.82-3.35,1.9-2.23,2.86-5.49,2.86-9.78s-1.24-7.34-3.73-9.14c-2.48-1.81-6.34-2.71-11.58-2.71h-9.08v24.99h10.72ZM674.42,262.33h16.94l-30.82-74.33h-15.41l-30.82,74.33h16.94l6.63-16.06h29.91l6.63,16.06h0ZM652.89,210.12l8.88,21.59h-17.86l8.98-21.59h0ZM752.26,212.67c0,11.91-4.52,19.6-13.57,23.08l18.07,26.58h-19.6l-15.82-23.71h-11.02v23.71h-15.92v-74.33h27.05c11.09,0,19,1.95,23.73,5.85,4.73,3.9,7.09,10.17,7.09,18.82h0ZM721.95,224.26c5.44,0,9.15-.92,11.12-2.76,1.97-1.84,2.96-4.77,2.96-8.77s-1.02-6.75-3.06-8.24c-2.04-1.49-5.61-2.23-10.72-2.23h-11.94v22.01h11.64ZM792.13,202.36h20.21v-14.36h-56.34v14.36h20.21v59.97h15.92v-59.97h0ZM814.64,262.33v-11.38l37.36-48.59h-36.13v-14.36h57.87v11.48l-37.25,48.38h37.87v14.46h-59.71ZM881.22,188h15.92v74.33h-15.92v-74.33h0ZM905.25,262.33v-74.33h15.92v59.55h30.41v14.78h-46.34ZM957.98,262.33v-74.33h15.92v59.55h30.41v14.78h-46.34ZM1045.76,210.12l-8.98,21.59h17.86l-8.88-21.59Z"/>
        <path class="cls-2" d="M545.45,225.02v46.16h-41.31l32.01-46.16h9.3ZM512.89,178.54l-64.25,92.64h47.92l48.88-70.48v-22.15h-32.56Z"/>
        <path class="cls-6" d="M403.77,178.54h41.99v92.64h-41.99v-92.64h0ZM451.69,178.54h53.85l-43.9,63.31h-9.95v-63.31Z"/>
      </g>
      <path class="cls-11" d="M405.99,180.77v88.19h37.55v-88.19h-37.55ZM453.91,180.77v58.86h6.56l40.82-58.86h-47.38Z"/>
      <path class="cls-10" d="M543.23,227.25h-5.92l-28.93,41.71h34.85v-41.71h0ZM514.06,180.77h29.17v19.24l-47.82,68.96h-42.51l61.16-88.19Z"/>
      <path class="cls-5" d="M1068.79,260.11h12.13l-28.98-69.88h-12.44l-28.98,69.88h12.13l6.63-16.06h32.88l6.63,16.06h0ZM1045.78,204.3l12.19,29.62h-24.51l12.33-29.62h0ZM568.55,190.22v69.88h11.48v-20.74h11.71c7.3,0,16.27-1.03,22.11-5.87,5.46-4.52,6.9-11.67,6.9-18.44s-1.43-14.03-6.75-18.75c-5.74-5.09-15.13-6.09-22.46-6.09h-22.99ZM592.97,229.46h-12.94v-29.43h11.3c4.26,0,9.34.55,12.89,3.14,3.54,2.58,4.64,6.75,4.64,10.94,0,3.95-.75,8.13-3.39,11.23-2.95,3.46-8.23,4.13-12.51,4.13h0ZM675.91,260.11l-6.63-16.06h-32.88l-6.64,16.06h-12.13l28.98-69.88h12.44l28.98,69.88h-12.13ZM652.9,204.3l-12.32,29.62h24.51l-12.19-29.62h0ZM696.61,190.22v69.88h11.48v-23.71h14.43l15.82,23.71h14.21l-17.28-25.43,2.62-1c9.26-3.56,12.15-11.59,12.15-21,0-6.2-1.25-12.96-6.29-17.11-5.57-4.59-15.42-5.34-22.32-5.34h-24.83ZM721.95,226.48h-13.86v-26.46h14.16c3.78,0,8.87.36,12.03,2.66,3.17,2.31,3.97,6.34,3.97,10.04s-.81,7.73-3.67,10.4c-3.12,2.91-8.59,3.36-12.64,3.36h0ZM810.11,200.13v-9.91h-51.89v9.91h20.21v59.97h11.48v-59.97h20.21ZM816.87,260.11h55.26v-10.02h-40.16l39.55-51.36v-8.5h-53.43v9.91h38.42l-39.65,51.57v8.4h0ZM883.45,190.22v69.88h11.48v-69.88h-11.48ZM907.47,260.11h41.89v-10.34h-30.41v-59.55h-11.48v69.88h0ZM960.2,260.11h41.89v-10.34h-30.42v-59.55h-11.48v69.88Z"/>
    </g>
    <path class="cls-7" d="M103.03,312.13h1248.03l-114.35,362.6-14.73-3.03c-329.3-67.76-660.55-66.96-989.9,0l-14.7,2.99-114.34-362.57Z"/>
    <path class="cls-13" d="M125.76,328.79l102.99,326.57c332.19-67.55,664.39-68.35,996.58,0l102.99-326.57H125.76Z"/>
    <path class="cls-7" d="M1166.27,362.05c2.11-2.17,4.44-4.14,6.98-5.77,3.67-2.35,7.8-3.91,12.19-3.91h84.39v86.99l-12.29-.61c-11.36-.56-22.71-1.15-34.07-1.72l-10.98-.55v9.14c18.21,18.04,36.23,36.29,54.01,54.78l3.33,3.46v93.73c0,4.57-1.3,8.95-3.49,12.93-1.77,3.22-3.95,6.17-6.48,8.82-2.76,2.89-5.99,5.16-9.6,6.82-4.07,1.87-8.49,2.68-12.91,1.77-24.14-5.01-48.3-9.91-72.57-14.24l-9.68-1.73v-10.88c-2.54,2.26-5.39,4.06-8.51,5.42-3.8,1.66-8.05,2.43-12.16,1.77-24.23-3.85-48.48-7.5-72.75-11.06l-10.04-1.47v-9.69c-2.49,2.2-5.27,3.95-8.29,5.34-3.72,1.71-7.88,2.6-11.96,2.1-25.45-3.11-50.97-5.65-76.5-8.1l-8.69-.83-1.49-.13c-10.84-.96-21.7-1.7-32.56-2.44l-8.54-.58-2.05-8.43c-2.66-10.92-5.38-21.82-8.01-32.74v40.42l-12.45-.79c-11.22-.71-22.46-1.17-33.7-1.62h-.08s0,0,0,0l-12.19-.49c-23.83-.96-47.67-1.43-71.52-1.76-4-.06-7.86-1.28-11.35-3.2-1.68-.93-3.28-1.99-4.79-3.16l.78,5.96-13.19.17c-11.5.15-23.01.31-34.51.44l-10.46.12-1.29-10.53c-1.07-8.67-2.13-17.34-3.09-26.02-.35-3.19-.7-6.38-1.05-9.57-2,.94-4,1.88-6,2.83-1.39,11.15-2.72,22.32-4.04,33.48l-1.2,10.04-9.97.41c-11.32.46-22.64.89-33.95,1.36l-13.1.53c-13.67.65-27.33,1.55-40.98,2.45l-9.72.64-2.4-9.57c-2.15-8.58-4.3-17.17-6.44-25.76v35.76l-10.8.86c-11.14.89-22.27,1.9-33.39,2.93l-1.62.15h0s-6.51.6-6.51.6l-4.66.43h0c-18.66,1.69-37.29,3.69-55.9,5.88-4.23.5-8.44-.37-12.28-2.21-1.21-.58-2.39-1.23-3.53-1.94l1.42,5.77-13.19,1.6c-10.87,1.31-21.71,2.84-32.54,4.39l-10.58,1.52-2.46-10.54c-2.66-11.39-5.38-22.77-7.98-34.18v46.2l-10.09,1.44c-11.25,1.6-22.47,3.43-33.68,5.31l-10.99,1.84c-11.5,1.94-23.01,3.88-34.52,5.79l-12.26,2.03-1.29-12.52c-1.06-10.34-2.13-20.68-3.08-31.04-.33-3.6-.66-7.2-.99-10.79-1.91,1.36-3.83,2.72-5.74,4.08-1.49,14.93-2.91,29.88-4.32,44.82l-.84,8.9-8.67,1.65c-11.31,2.15-22.62,4.32-33.93,6.5l-15.39,2.96,1.54-15.8c4.21-43.05,8.42-86.1,12.69-129.14,4.2-42.28,8.55-84.55,12.91-126.82l1.1-10.64h75.46l1.12,10.61c4.2,39.79,8.63,79.55,12.9,119.33.21,2,.43,4,.65,5.99v-135.93h258.62l2.18,9.07c2.16,8.97,4.33,17.93,6.52,26.89v-35.95h56.97v114.07c.12-.94.24-1.88.35-2.82,4.23-33.65,8.57-67.28,12.91-100.91l1.33-10.33h74.96l1.31,10.36c4.23,33.33,8.67,66.62,12.91,99.95.05.38.1.75.14,1.13v-81.93c0-4.43,1.53-8.48,3.85-12.18,1.81-2.88,3.96-5.54,6.38-7.92,2.54-2.49,5.36-4.61,8.48-6.29,3.53-1.9,7.4-3.13,11.42-3.13h188.48v12.23c.73-.85,1.49-1.67,2.29-2.46,2.51-2.5,5.33-4.69,8.4-6.44,3.57-2.03,7.53-3.34,11.66-3.34h88.2v9.26c2.21-2.17,4.64-4.1,7.29-5.69,3.61-2.16,7.65-3.57,11.88-3.57h84.29v9.68h0ZM1155.1,433.83l-1.05-.05c-11.29-.49-22.58-1-33.88-1.4l-11.14-.4v7.04c18.06,16.27,35.9,32.79,53.53,49.54l3.7,3.52v39.69l2.11.29c11.37,1.54,22.73,3.06,34.08,4.73l9.87,1.45v-9.65c-17.61-18.08-35.46-35.91-53.6-53.44l-3.63-3.51v-37.8h0ZM1062.81,474.77v44.57l1.8.19c11.35,1.23,22.69,2.51,34.03,3.82l10.23,1.18v-7.81c-15.24-14.11-30.59-28.1-46.06-41.95h0ZM944.28,481.48c-2.61,1.24-5.21,2.5-7.82,3.76,2.61,10.65,5.22,21.3,7.82,31.96v-35.71h0ZM836.17,425.52h-.68c-11.3-.14-22.6-.24-33.9-.31l-10.42-.07v78.36l10.76.24c11.35.26,22.69.62,34.04.95h.21v-79.16h0ZM499.88,406.72h-.4c-9.93.13-19.86.26-29.79.41v36.51c8.85-.4,17.71-.76,26.56-1.09l3.63-.14v-35.7h0ZM499.88,496.72l-2.58.14c-9.21.49-18.41.99-27.62,1.54v37c9.58-.87,19.17-1.6,28.75-2.34l1.44-.11v-36.23h0ZM412.29,489.19c-2.34,1.45-4.67,2.91-7,4.38,2.32,9.92,4.66,19.84,7,29.75v-34.14h0ZM364.16,409.06c-.44,0-.88.02-1.32.03v45.35c.44-.28.88-.55,1.32-.83v-44.54h0ZM894.88,405.77c-.44,0-.88,0-1.32-.01v38.97c.44-.21.88-.42,1.32-.63v-38.32h0ZM1001.67,407.09v128.07c1.25.12,2.5.23,3.75.35v-128.36c-1.25-.02-2.5-.04-3.75-.06Z"/>
    <path class="cls-2" d="M243.23,520.67c1.69-17.22,3.38-34.42,5.08-51.56,1.69-17.07,3.49-34.16,5.29-51.18.21,0,.42-.03.64-.03,1.38,15.07,2.75,30.09,4.13,45.09,1.37,14.94,2.75,29.86,4.23,44.73-6.35,4.27-12.69,8.62-19.04,12.9-.11.03-.21.03-.32.05h0ZM265.76,544.49c.95,10.36,1.9,20.73,2.86,31.07.95,10.31,2.01,20.62,3.07,30.91,11.42-1.89,22.96-3.84,34.49-5.78-4.34-38.77-8.79-77.81-13.01-117.1-4.24-39.51-8.67-79.3-12.91-119.35h-54.37c-4.34,41.99-8.69,84.26-12.91,126.77-4.24,42.76-8.46,85.85-12.69,129.12,11.32-2.18,22.64-4.35,33.96-6.5,1.59-16.81,3.17-33.57,4.87-50.28,8.89-6.34,17.77-12.64,26.66-18.86Z"/>
    <path class="cls-2" d="M409.84,476.81v-112.57h-92.67v234.6c11.32-1.89,22.64-3.74,33.96-5.35v-78.71c4.02-2.76,8.15-5.55,12.27-8.32,3.07,13.92,6.24,27.79,9.31,41.58,3.06,13.74,6.35,27.43,9.52,41.02,10.9-1.56,21.79-3.1,32.79-4.43-3.91-15.94-7.83-31.96-11.64-48.03-3.81-16.09-7.62-32.27-11.42-48.57,5.92-3.79,11.85-7.55,17.88-11.23h0ZM375.88,396.95v63.26c-8.25,5.19-16.5,10.42-24.75,15.69v-78.43c8.25-.18,16.5-.36,24.75-.51Z"/>
    <path class="cls-2" d="M457.97,542.22c0,1.13.51,2.46,1.38,3.84.93,1.48,2.01,2.07,3.28,1.95,12.16-1.2,24.44-2.15,36.71-3.1v30.55c-18.93,1.71-37.87,3.74-56.7,5.96-1.8.21-3.81-.14-5.92-1.15-2.12-1.01-4.11-2.35-5.92-4.04-1.89-1.76-3.47-3.64-4.76-5.65-1.35-2.1-2.01-4.17-2.01-6.3v-200.03h75.32v30.61c-13.86.18-27.61.36-41.36.59v60.65c12.9-.64,25.81-1.18,38.72-1.66v30.58c-12.91.69-25.81,1.38-38.72,2.25v54.96Z"/>
    <path class="cls-2" d="M511.6,574.33c11.11-1.02,22.32-2.05,33.53-2.94v-122.08c4.87,20.21,9.83,40.36,14.7,60.39,4.86,19.99,9.84,39.92,14.81,59.75,14.39-.95,28.88-1.89,43.37-2.56v-202.64h-33.53v120.35c-4.97-19.88-10.06-39.84-14.91-59.85-4.87-20.08-9.84-40.25-14.7-60.49h-43.27v210.09Z"/>
    <path class="cls-2" d="M672.07,490.89c1.69-13.82,3.38-27.64,5.08-41.45,1.69-13.79,3.38-27.58,5.18-41.4h.74c1.38,12.36,2.75,24.7,4.13,37.03,1.37,12.31,2.75,24.64,4.13,36.98-6.35,2.94-12.69,5.89-19.04,8.85h-.21ZM694.5,512.53c.95,8.65,1.9,17.27,2.86,25.92.95,8.62,2.01,17.27,3.07,25.87,11.42-.13,22.96-.28,34.49-.43-4.34-33.22-8.78-66.46-13.01-99.7-4.23-33.29-8.67-66.61-12.91-99.95h-54.37c-4.34,33.57-8.68,67.22-12.9,100.87-4.24,33.72-8.46,67.5-12.69,101.33,11.32-.46,22.64-.9,33.96-1.36,1.59-13.33,3.17-26.69,4.87-40.02,8.89-4.27,17.77-8.39,26.66-12.54Z"/>
    <path class="cls-2" d="M763.79,564.12c23.91.33,47.81.79,71.83,1.77v-49.34c-11.32-.33-22.64-.69-33.96-.95v20.04c-5.92-.05-11.74-.12-17.56-.18-1.38-.01-2.46-.71-3.39-2.15-.88-1.37-1.27-2.66-1.27-3.71v-131.12c.32-1.05.85-2.2,1.69-3.4.85-1.22,1.8-1.85,2.96-1.84,5.82.02,11.64.03,17.56.03v20.06c11.32.08,22.64.18,33.96.31v-49.39h-71.83c-1.8,0-3.81.6-5.92,1.74-2.11,1.14-4.02,2.56-5.82,4.32-1.8,1.77-3.36,3.72-4.65,5.78-1.35,2.13-2.01,4.02-2.01,5.78v164.41c0,1.92.67,3.87,2.01,5.94,1.3,2.01,2.85,3.95,4.65,5.73,1.79,1.77,3.71,3.24,5.82,4.4,2.12,1.17,4.13,1.74,5.92,1.77Z"/>
    <path class="cls-2" d="M940.55,470.13v-105.89h-92.67v202.13c11.32.46,22.64.92,33.96,1.64v-69.96c4.02-1.95,8.14-3.91,12.27-5.89,3.07,12.92,6.25,25.9,9.31,38.87,3.07,13,6.35,26.05,9.52,39.1,10.9.74,21.79,1.48,32.79,2.46-3.91-15.79-7.72-31.58-11.53-47.21-3.8-15.59-7.62-31.17-11.43-46.7,5.92-2.84,11.85-5.73,17.77-8.55h0ZM906.59,394v57.6c-8.25,3.97-16.5,7.93-24.75,11.87v-69.7c8.25.08,16.5.15,24.75.23Z"/>
    <path class="cls-2" d="M994.61,395.11c-1.27-.02-2.36.67-3.28,2.17-.88,1.44-1.38,2.79-1.38,3.89v144.89c7.51.61,15.02,1.31,22.53,2.1,1.27.13,2.4-.55,3.28-1.94.92-1.45,1.38-2.71,1.38-3.84v-146.91c-7.51-.13-15.02-.25-22.53-.36h0ZM956,573.56v-190.84c0-1.84.67-3.8,2.01-6.04,1.31-2.18,2.87-4.19,4.76-6.06,1.82-1.81,3.81-3.35,5.92-4.56,2.12-1.2,4.13-1.82,5.92-1.82h76.48v200.36c0,2.1-.63,4.22-1.9,6.29-1.27,2.07-2.86,3.94-4.65,5.65-1.8,1.71-3.81,3-6.03,4.02-2.12.98-4.13,1.32-5.71,1.13-25.6-3.13-51.2-5.68-76.8-8.14Z"/>
    <path class="cls-2" d="M1101.98,397.13c-1.27-.03-2.36.71-3.28,2.3-.88,1.53-1.38,2.94-1.38,4.12v40.82c19.04,17.09,38.08,34.67,57.23,52.87v81.83c0,2.25-.63,4.48-1.9,6.65-1.27,2.15-2.85,4.1-4.65,5.86-1.79,1.75-3.81,3.05-6.03,4.02-2.12.92-4.12,1.2-5.71.95-24.33-3.87-48.66-7.52-72.89-11.08v-54.12c11.32,1.23,22.64,2.51,33.96,3.81v22.62c6.35.82,12.68,1.81,19.15,2.48,1.16.12,2.15-.76,2.96-2.2.77-1.37,1.16-2.74,1.16-3.91v-42.66c-19.15-17.76-38.19-35.11-57.23-52.05v-75.67c0-1.94.68-4.02,2.01-6.37,1.31-2.31,2.88-4.43,4.76-6.4,1.83-1.92,3.81-3.57,5.92-4.84,2.11-1.26,4.13-1.92,5.92-1.92h72.57v57.68c-11.32-.49-22.64-1-33.96-1.41v-22.98c-6.24-.15-12.48-.28-18.62-.41Z"/>
    <path class="cls-2" d="M1205.43,399.74c-1.27-.04-2.36.73-3.28,2.46-.88,1.65-1.38,3.17-1.38,4.45v43.99c19.04,18.81,38.19,38.15,57.34,58.06v88.9c0,2.46-.75,4.87-2.01,7.16-1.28,2.34-2.85,4.44-4.65,6.32-1.79,1.88-3.82,3.26-6.03,4.27-2.13.98-4.02,1.3-5.71.95-24.33-5.05-48.66-9.98-72.88-14.3v-58.16c11.32,1.54,22.64,3.04,33.96,4.71v24.41c6.35,1.1,12.68,2.42,19.15,3.38,1.16.17,2.15-.73,2.96-2.25.78-1.47,1.16-2.89,1.16-4.2v-46.16c-19.15-19.73-38.19-38.77-57.23-57.17v-81.32c0-2.1.67-4.34,2.01-6.86,1.31-2.47,2.87-4.76,4.76-6.88,1.81-2.04,3.81-3.81,5.92-5.17,2.12-1.36,4.13-2.07,5.92-2.07h72.67v62.64c-11.42-.56-22.74-1.15-34.06-1.72v-24.87c-6.24-.2-12.48-.37-18.62-.56Z"/>
    <path class="cls-4" d="M276.79,368h-47.44c-4.25,41.12-8.47,82.24-12.56,123.38l-.04.39c8.58-.93,17.15-1.84,25.73-2.72l2-20.3c1.69-17.08,3.49-34.14,5.29-51.2l.36-3.37h3.43c.22,0,.44-.03.66-.03h3.51l.31,3.42c1.37,15.03,2.74,30.06,4.13,45.09.74,8.06,1.48,16.12,2.24,24.18,8.32-.82,16.65-1.61,24.97-2.39l-.05-.47c-4.15-38.67-8.45-77.31-12.55-115.99h0ZM406,474.73v-106.73h-84.99v113.61c8.76-.76,17.52-1.5,26.28-2.21v-85.61l3.75-.08c8.26-.18,16.51-.36,24.76-.51l3.91-.07v69.13l-1.76,1.11c-8.2,5.16-16.38,10.34-24.54,15.55,17.36-1.39,34.73-2.68,52.09-3.87l.5-.31h0ZM495.49,391.14v-23.14h-67.64v105.55c21.67-1.39,43.33-2.63,65-3.72v-11.5c-11.56.44-23.13.94-34.68,1.51l-4.03.2v-68.29l3.77-.06c12.53-.21,25.06-.38,37.59-.54h0ZM541.3,467.63v-21.68l6.79-.77.78,3.25c1.5,6.24,3.02,12.48,4.54,18.72,7.52-.28,15.04-.55,22.55-.8-3.41-13.58-6.82-27.16-10.12-40.76-4.66-19.2-9.38-38.39-14.01-57.61h-36.39v100.74c8.62-.39,17.24-.76,25.86-1.1h0ZM614.18,465.27v-97.27h-25.86v97.98c8.62-.26,17.24-.5,25.86-.71h0ZM717.99,463.84c-4.07-31.95-8.32-63.88-12.38-95.84h-47.6c-4.16,32.19-8.31,64.38-12.36,96.59,8.61-.16,17.22-.28,25.83-.39l1.86-15.21c1.69-13.81,3.39-27.63,5.19-41.43l.43-3.28h7.56l.37,3.35c1.37,12.34,2.75,24.68,4.13,37.03l2.16,19.32c8.27-.07,16.54-.11,24.81-.13h0ZM775.61,464.02v-66.08l.16-.52c.48-1.59,1.25-3.08,2.2-4.45,1.45-2.08,3.51-3.49,6.15-3.48,5.85.02,11.7.03,17.55.03h3.84v20.09c8.76.06,17.52.14,26.28.24v-41.83h-67.99c-1.36,0-2.9.65-4.07,1.28-1.84.99-3.47,2.23-4.95,3.68-1.56,1.54-2.94,3.26-4.11,5.1-.67,1.07-1.44,2.52-1.44,3.81v81.97c8.8.03,17.59.1,26.39.18h0ZM936.71,467.78v-99.79h-84.99v97.35h0c8.76.24,17.52.48,26.28.75v-76.11l3.87.04c8.25.08,16.5.15,24.75.23l3.8.04v63.66l-2.15,1.03c-7.88,3.79-15.76,7.57-23.64,11.34,17.02.56,34.05,1.2,51.07,1.94l1-.48h0ZM1047.26,474.44v-106.44h-72.64c-1.35,0-2.86.66-4,1.31-1.88,1.07-3.59,2.43-5.11,3.94-1.62,1.61-3.02,3.38-4.18,5.33-.71,1.18-1.48,2.74-1.48,4.14v86.65c8.76.42,17.52.87,26.28,1.35v-69.55c0-2.05.86-4.08,1.92-5.82,1.45-2.38,3.69-4.05,6.63-4,7.51.11,15.03.23,22.54.36l3.77.06v80.97c8.76.54,17.52,1.1,26.28,1.69h0ZM1124.43,416.9c8.76.33,17.52.72,26.28,1.1v-50h-68.73c-1.32,0-2.83.71-3.92,1.37-1.9,1.14-3.6,2.6-5.12,4.19-1.64,1.72-3.05,3.61-4.21,5.66-.75,1.32-1.53,3-1.53,4.55v74.01c7.33,6.52,14.62,13.08,21.89,19.67,14.18,1.08,28.37,2.23,42.55,3.44-12.2-11.36-24.5-22.61-36.91-33.75l-1.24-1.12v-42.47c0-2.09.83-4.16,1.87-5.96,1.43-2.48,3.68-4.28,6.7-4.21,6.21.13,12.42.26,18.63.41l3.74.09v23.03h0ZM1235.57,490.92c-12.4-12.65-24.91-25.2-37.51-37.65l-1.11-1.1v-45.53c0-2.15.8-4.3,1.81-6.19,1.39-2.61,3.65-4.57,6.8-4.47,6.21.19,12.42.36,18.63.56l3.71.12v24.93c8.8.44,17.59.89,26.39,1.33v-54.94h-68.83c-1.27,0-2.79.8-3.82,1.46-1.91,1.23-3.63,2.8-5.13,4.49-1.67,1.88-3.08,3.94-4.25,6.15-.81,1.53-1.58,3.37-1.58,5.13v79.75c7.36,7.12,14.68,14.3,21.95,21.51,14.32,1.41,28.64,2.89,42.96,4.43Z"/>
    <path class="cls-12" d="M216.75,491.77c-4.09,41.23-8.13,82.47-12.16,123.71,8.7-1.67,17.39-3.34,26.09-4.99,1.49-15.84,3-31.68,4.6-47.5l.17-1.67,1.39-.99c8.87-6.33,17.76-12.63,26.69-18.88l5.45-3.82.6,6.53c.95,10.35,1.9,20.71,2.86,31.06.83,8.96,1.73,17.92,2.65,26.88,8.96-1.49,17.91-3,26.87-4.51-4.22-37.71-8.52-75.41-12.57-113.14-8.32.78-16.65,1.57-24.97,2.39.65,6.84,1.3,13.68,1.98,20.52l.22,2.2-1.86,1.25c-6.36,4.28-12.68,8.62-19.04,12.9l-.58.39-.69.16c-.15.04-.3.06-.45.08l-5.11,1.24.52-5.28,3.07-31.26c-8.58.88-17.15,1.79-25.73,2.72h0ZM321.01,481.6c8.76-.76,17.52-1.5,26.28-2.21v3.43l5.94-3.79.19-.12c17.36-1.39,34.73-2.68,52.09-3.87-5.25,3.24-10.45,6.54-15.64,9.86l-2.24,1.43.6,2.55c3.79,16.2,7.59,32.39,11.43,48.58,3.48,14.68,7.05,29.33,10.64,43.98-8.38,1.06-16.75,2.22-25.11,3.41-2.94-12.53-5.92-25.04-8.72-37.6-3.09-13.86-6.25-27.71-9.31-41.57l-1.2-5.47-4.71,3.16c-4.12,2.76-8.23,5.54-12.31,8.34l-1.63,1.12v77.42c-8.78,1.28-17.53,2.69-26.28,4.14v-112.79h0ZM427.85,473.55c21.67-1.39,43.33-2.63,65-3.72v11.62c-11.72.63-23.44,1.27-35.14,2.06l-3.57.24v58.47c0,2.06.86,4.07,1.94,5.8,1.54,2.46,3.92,4.02,6.94,3.72,10.81-1.07,21.65-1.93,32.48-2.77v23.07c-17.8,1.65-35.57,3.56-53.32,5.65-1.29.15-2.64-.25-3.78-.8-1.83-.87-3.49-2.01-4.96-3.39-1.59-1.48-2.99-3.12-4.16-4.93-.85-1.31-1.42-2.73-1.42-4.3v-90.72h0ZM515.44,468.74c8.62-.39,17.24-.76,25.86-1.1v100.3c-8.62.71-17.24,1.48-25.86,2.28v-101.47h0ZM553.4,467.17c7.52-.28,15.04-.55,22.55-.8,1.6,6.37,3.2,12.74,4.8,19.11l.81,3.23,6.76-.8v-21.94c8.62-.26,17.24-.5,25.86-.71v98.04c-12.2.6-24.39,1.38-36.58,2.18-4.73-18.87-9.44-37.76-14.03-56.66-3.38-13.89-6.79-27.77-10.17-41.66h0ZM645.65,464.59c8.61-.16,17.22-.28,25.83-.39l-3.21,26.24-.51,4.2h5.41l.78-.37c6.34-2.96,12.68-5.9,19.03-8.85l2.47-1.15-.3-2.65-1.97-17.65c8.27-.07,16.54-.11,24.81-.13l.1.82c4.05,31.86,8.3,63.69,12.47,95.54-8.91.12-17.82.24-26.74.34-.92-7.49-1.82-14.98-2.65-22.48-.95-8.64-1.9-17.28-2.86-25.92l-.58-5.27-4.89,2.28c-8.91,4.16-17.84,8.29-26.7,12.56l-1.86.89-.26,2.01c-1.56,12.28-3.03,24.57-4.49,36.87-8.72.35-17.44.69-26.16,1.04,4.04-32.31,8.09-64.63,12.14-96.94l.12-.99h0ZM749.22,463.84c8.8.03,17.59.1,26.39.18v65.58c0,2.02.77,4,1.85,5.7,1.5,2.35,3.71,3.88,6.6,3.91,5.86.06,11.71.13,17.57.18l3.87.03v-19.98c8.76.22,17.52.48,26.28.74v41.78c-22.64-.86-45.28-1.3-67.93-1.61-1.4-.02-2.89-.62-4.1-1.28-1.84-1.01-3.48-2.3-4.97-3.77-1.56-1.55-2.95-3.27-4.14-5.11-.75-1.16-1.41-2.52-1.41-3.92v-82.44h0ZM851.72,465.36c8.76.22,17.52.46,26.28.74v3.39l5.52-2.64,1.12-.53c17.02.56,34.05,1.2,51.07,1.94-4.88,2.34-9.75,4.71-14.63,7.05l-2.76,1.32.72,2.92c3.82,15.56,7.63,31.13,11.42,46.7,3.43,14.05,6.82,28.11,10.28,42.15-8.24-.68-16.48-1.25-24.73-1.82-2.96-12.13-5.99-24.24-8.86-36.39-3.06-12.97-6.23-25.91-9.31-38.87l-1.09-4.59-4.33,2.07c-4.1,1.96-8.2,3.92-12.29,5.89l-2.14,1.03v68.3c-8.75-.51-17.52-.89-26.28-1.24v-97.41h0ZM959.83,469.37c8.76.42,17.52.87,26.28,1.35v78.79l3.52.29c7.49.61,14.97,1.31,22.44,2.09,2.97.31,5.42-1.29,6.95-3.7,1.11-1.76,1.95-3.72,1.95-5.81v-69.62c8.76.54,17.52,1.1,26.28,1.69v90.17c0,1.56-.55,3.04-1.36,4.36-1.11,1.81-2.5,3.43-4.04,4.9-1.47,1.4-3.14,2.46-4.99,3.31-1.01.47-2.46.94-3.6.8-24.43-2.99-48.93-5.46-73.44-7.82v-100.79h0ZM1089.09,477.44c14.18,1.08,28.37,2.23,42.55,3.44,6.39,5.95,12.75,11.93,19.08,17.94v80.25c0,1.71-.53,3.31-1.39,4.78-1.1,1.87-2.48,3.55-4.04,5.07-1.42,1.39-3.06,2.45-4.88,3.25-1.01.44-2.42.85-3.53.67-23.2-3.69-46.42-7.19-69.66-10.61v-46.69c8.76.96,17.52,1.95,26.28,2.95v22.57l3.34.43c6.42.83,12.81,1.82,19.24,2.49,3.05.32,5.34-1.66,6.73-4.12.98-1.74,1.64-3.73,1.64-5.73v-44.27l-1.2-1.11c-11.32-10.5-22.7-20.94-34.14-31.32h0ZM1192.6,486.49c14.32,1.41,28.64,2.89,42.96,4.43,6.27,6.39,12.5,12.81,18.71,19.26v87.41c0,1.89-.65,3.74-1.55,5.39-1.1,2.02-2.48,3.86-4.07,5.53-1.4,1.46-3.01,2.59-4.86,3.44-.94.43-2.23.89-3.28.67-23.23-4.82-46.49-9.54-69.84-13.76v-50.73c8.76,1.19,17.53,2.37,26.28,3.63v24.32l3.17.55c6.42,1.11,12.79,2.44,19.24,3.39,3.2.47,5.56-1.63,6.94-4.24.97-1.83,1.59-3.85,1.59-5.93v-47.66l-1.06-1.09c-11.3-11.64-22.71-23.2-34.23-34.64Z"/>
    <polygon class="cls-7" points="667.22 812.19 696 812.19 696 782.66 758.11 782.66 758.11 812.19 786.89 812.19 786.89 782.66 934.57 782.66 849 828.86 803.55 858.68 758.11 888.49 727.04 908.18 696 888.49 650.55 858.68 605.11 828.86 519.54 782.66 667.22 782.66 667.22 812.19"/>
    <path class="cls-2" d="M658.88,820.53h45.45v-29.54h45.45v29.54h45.45v-29.54h82.2l-36.75,10.95v18.59h-45.44v29.81h-45.45v29.81h-45.45v-29.81h-45.45v-29.81h-45.44v-18.59l-36.75-10.95h82.2v29.54h0ZM704.33,820.53v29.81h45.45v-29.81h-45.45Z"/>
    <path class="cls-3" d="M701.63,847.64v-24.41h-40.04v24.41h40.04ZM707.03,853.04v24.41h40.04v-24.41h-40.04ZM752.48,847.64h40.04v-24.41h-40.04v24.41h0ZM747.07,817.83v-24.14h-40.04v24.14h40.04ZM656.18,793.69h-60.97l20.93,6.24v17.9h40.04v-24.14h0ZM797.92,817.83h40.04v-17.9l20.93-6.24h-60.97v24.14Z"/>
  </g>
  <g>
    <path d="M1180.66,730.65c-1.79-3.6-4.8-6.19-8.48-7.3-.56-.17-1.22-.35-2.1-.47,2.33-3.43,4.07-7.07,4.86-10.84,1.52-7.22.68-14.73-2.31-20.6-2.42-4.76-6.11-8.06-10.39-9.3-1.38-.39-2.83-.59-4.42-.59-3.56,0-7.98.97-16.02,3.53-1.88.66-3.83,1.4-5.85,2.23-.4-2.2-1.12-4.3-2.15-6.21-2.23-4.16-5.68-7.04-9.75-8.12-.57-.15-1.09-.14-1.64-.22.14-.07.26-.14.31-.17,2.96-1.48,9.12-4.55,10.83-13.81,1-5.38.09-11.19-2.49-15.96-2.46-4.53-6.14-7.63-10.37-8.71l-1.77-.37h-1.15c-4.82,0-9.73,2.88-16.28,7.68-6.26,4.8-11.55,9.42-12.96,17.41-.3,1.76-.31,3.5-.19,5.23-1.55-1.29-3.29-2.2-5.16-2.64l-1.62-.31h-1.05c-3.97,0-7.17,1.96-9.77,3.87-5.43,3.98-10.2,7.12-14.56,9.56.09-4.66-1.18-9.5-3.63-13.66-.85-1.44-1.81-2.74-2.85-3.85,10.47-6.78,14.9-10,16.28-19.18.92-6.09-.15-12.33-2.96-17.1-2.35-3.99-5.74-6.63-9.53-7.42-.93-.2-1.86-.3-2.8-.3-4.63,0-8.48,2.43-11.58,4.76-12.27,9.09-15.42,10.45-25.95,11.15l-1.47,10.53c-8.78,6.4-17.48,13.65-25.72,21.42.51-5.26-.61-10.34-3.19-14.36-2.44-3.82-5.98-6.28-9.92-6.91-.92-.15-2.13-.25-3.56-.25-5.97,0-14.93,1.51-18.69,2.2-9.87,2.02-19.82,5.49-28.29,9.79-.07-4.76-1.58-9.56-4.28-13.48-2.96-4.29-6.94-6.94-11.21-7.43l-1.01-.09h-.53c-4.17,0-7.43,1.88-12.46,5.08-2.42,1.59-4.57,3.07-7.35,5.14-.69-2.33-1.71-4.48-3.05-6.34-2.65-3.7-6.32-5.94-10.34-6.32l-1.1-.05c-4.34,0-7.45,2.34-10.56,5-2.88,2.65-5.76,5.3-8.37,7.74-1.85,1.62-3.99,3.24-6.21,4.73-.4-4.87-2.19-9.57-5.17-13.53-3.89-5.18-9.36-8.35-15.01-8.72l-1.13-.03c-7.78,0-18.13,5.13-31.68,15.72-3.51,2.76-6.91,5.72-10.16,8.82.35-1.6.55-3.36.6-5.36.06-2.71-.3-5.32-.91-7.77,1.8,1.03,3.78,1.64,5.85,1.72h.59c5.48.01,9.01-3.2,14.96-8.63,0,0,4.71-3.76,5.14-4.13,2.69-2.07,8.3-6.37,8.62-15.79.2-5.51-1.53-11.06-4.77-15.23-3.07-3.96-7.14-6.25-11.98-6.47-5.63,0-10.54,4.02-17.3,11.17-5.44,6.03-9.96,11.67-10.16,19.74-.05,1.79.19,3.51.56,5.19-1.74-.94-3.66-1.48-5.72-1.53-5.68,0-9.7,4.24-11.41,6.06-5.76,6.1-10.75,10.79-15.35,14.38-.72-5.77-2.87-11.05-6.12-14.93-3.3-3.92-7.52-6.08-11.91-6.08-5.12,0-10.41,2.87-19.2,8.66-1.66,1.16-3.38,2.42-5.13,3.77-2.67-6.29-7.99-10.51-14.34-10.51h0c-6.44.18-10.05,4.05-13.29,8.11-3.22,4.14-6.97,7.99-10.95,11.32-.98-10.84-8.09-19.12-17.32-19.12h-.03c-4.65.25-8.22,3.04-10.58,5.27-2.65,2.19-5.52,4.84-9.04,8.35-2.8-6.69-8.46-11.35-14.74-11.35l-.99.04c-5.09.39-8.82,3.34-11.65,6.04-3.08,2.83-6.05,5.7-9.69,9.38-2.7-6.72-7.79-11.15-13.58-11.15l-1.11.06c-5.55.56-9.05,5-11.88,9.24-3,3.88-8.35,10.11-12.66,14.32-.3.29-.59.56-.85.82-1.12-11.76-9.09-20.28-19.01-20.28-.75,0-1.52.05-2.29.15-12.05,1.54-32.23,16.79-45.06,30.32-.82.86-1.62,1.72-2.42,2.58.07-1.2.03-2.46-.12-3.77-.91-7.5-5.58-14.15-11.37-17.19,8.14-10.35,11.48-15.06,10.35-24.27-1.28-10.72-8.32-18.81-16.37-18.81l-1.25.04-.77.13c-5.83,1.01-9.58,5.45-12.43,9.6-9.23,13.2-11.86,15.66-21.67,20.26l-5.47-2.99c-.32-1.97-.78-3.83-1.4-5.62l-.53-2.13c-.09,0-.19.01-.28.02-1.32-3.08-3.16-5.97-5.59-8.87-6.98-8.4-15.78-12.66-26.16-12.66-3.03,0-6.23.37-9.51,1.11-22.79,5.08-50.26,25.13-70.02,51.11-24.87,33.04-37.64,73.22-31.78,100.01,5.5,24.99,24.62,43.12,45.46,43.13,3.23,0,6.45-.44,9.6-1.32,18.06-5.09,37.59-21.96,52.31-44.09,2.2,8.84,9.9,16.04,17.63,16.04.94,0,1.85-.11,2.71-.3,4.36-.97,8.14-4.63,10.65-10.78l.7-2.02c.83-2.39,2.18-5.73,3.73-9.3,2.71,8.47,10.15,15.08,17.64,15.08l1.6-.07.89-.18c8.35-1.68,10.83-9.24,12.84-15.4l.08-.3c1.05-2.65,2.18-5.17,3.4-7.55,3.76,8.93,10.66,16.29,18.51,16.29l1.34-.05.76-.13c5.61-.97,9.75-5.49,14.44-11.12,1.54-1.77,3.11-3.64,4.75-5.63,1.49,2.51,3.53,4.89,6.2,7.23,2.08,1.59,5.34,3.71,9.6,3.71l1.26-.05.66-.1c8.34-1.24,11.17-9.49,12.02-11.96.79-2.17,1.58-4.21,2.38-6.13,2.78,7.39,8.78,13.83,15.83,13.83l.85-.02.56-.07c7.99-1.01,10.72-6.93,13.11-12.1,1.34-2.87,2.74-5.68,4.18-8.43,1.4,5.47,4.39,8.97,5.36,10.11,4.3,5.3,8.77,6.42,11.75,6.42l1.23-.06c7.39-.75,10.59-7.7,11.97-10.72,1.53-3.65,3.35-7.36,5.36-11.03,1.26,7.51,5.88,14.07,11.55,16.97-2,2.88-3.76,5.78-5.61,9.15-2.48,4.42-8.17,15.74-7.59,25.28.58,9.52,7.54,20.13,16.59,20.13l.9-.04c8.34-.65,13.27-9.11,24.03-27.58,3.48-5.91,6.99-11.81,10.53-17.69,2.25-3.74,4.34-7.31,6.53-11.22,2.03.79,3.94,1.01,5.46,1.01l.79-.02c9.53-.46,22.84-8.86,31.58-16.1.77-.53,1.35-1.03,1.81-1.46,3.12-2.33,4.68-3.49,7.28-5.38,3.58-2.64,9.03-6.77,9.45-7.08l.2-.08.98-.7c1.14-.82,2.36-1.56,3.77-2.32-.86,2.73-1.41,5.45-1.4,8.69.02,5.44,1.89,10.42,5.33,14.71,4.64,6.51,9.46,7.89,12.72,7.9,7.33,0,10.73-5.53,13.59-10.23,2.38-3.39,8.18-11.8,8.92-12.84.45-.53.9-1.04,1.33-1.53.67,4.21,2.22,8.53,4.77,13.25,4.6,7.63,10.43,11.95,16.85,12.14,4.35,0,8.02-2.16,10.39-3.78,5.21-3.54,12.27-9.25,17.02-13.38l.74-.65.54-.36.5-.44c2.44-2.11,4.94-4.06,7.5-5.85-.18,1.08-.3,2.21-.35,3.41-.53,12.01,6.91,23.09,15.92,23.71l.87.03c6.68,0,10.13-4.94,14.36-11,1.99-2.73,3.8-5.15,5.48-7.34.22,10.94,7.19,20.46,16.01,21.29l1.26.06c4.87,0,9.03-2.62,12.51-8,.5,1.51,1.14,2.95,1.9,4.29,2.62,5.18,6.75,8.44,11.28,8.94l.73.07h.51c3.67,0,6.24-1.79,8.15-3.13,3.21-2.15,14.14-8.05,25.27-13.41,5.52-2.62,11.09-5,16.55-7.07-.56,1.67-1,3.51-1.23,5.56-1.19,11.04,6.15,22.82,15.11,24.23l.97.13h.71c3.89,0,7.73-2.07,11.21-6.33l1.26-1.73c1.4-1.94,3.55-4.59,5.96-7.39.38,10.16,7.05,20.06,15.15,21.54.87.16,1.67.23,2.44.23,6.84,0,10.53-5.28,13.5-9.52l.48-.75c2.1-2.63,4.27-5.01,6.5-7.15-.35,4.81.81,9.54,3.31,13.97,2.11,4.25,4.52,6.82,6.8,8.36-2.13,1.95-4.15,4-6.29,6.37-3.3,3.6-11.14,12.98-12.48,22.37-1.46,10,3.78,22.6,12.95,24.5l1.4.24h.93c6.74,0,12.03-4.94,26.61-20.2,4.58-4.75,9.2-9.48,13.84-14.18,2.96-3,5.73-5.89,8.66-9.06,2.09,1.54,4.21,2.34,5.92,2.76,1.73.42,3.61.62,5.75.62,7.62,0,18.4-2.78,28.28-7.26.85-.29,1.52-.61,2.06-.91,3.51-1.37,5.27-2.06,8.19-3.16,3.99-1.53,10.16-3.99,10.64-4.17l.22-.02,1.11-.41c2.01-.74,4.17-1.25,7-1.69,6.81-.89,13.46-1.37,19.23-1.37,2.81,0,5.53.11,8.3.37.77.06,2.05.08,2.05.08,10.12,0,12.81-8.81,13.38-11.44.84-3.81.38-7.76-1.3-11.14ZM395.45,694.85c-2.19-2.69-5.13-4.42-8.5-4.42l-1.36.04-1,.23c-4.25.97-6.78,4.49-7.88,6.22l-.89,1.19c-6.51,9.69-15.21,20.37-26.54,32.63-15.14,16.2-25.81,24.53-34.61,27.02-1.41.4-2.68.6-3.79.6-2.71,0-3.17-.9-3.63-3.09-.46-2.2-.77-4.44-.15-11.34,1.35-13.78,6.14-28.79,14.26-44.65,14.85-29.29,42.79-56.8,64.18-63.8-10.15,9.57-15.57,19.13-18.91,32.96l-5.18,21.49,18.21-5.81c2.73-.87,2.8-.89,7.68-2.74l2.67-1.01c6.36-2.41,10.17-3.87,11.75-4.64,1.94-.91,3.4-1.84,4.7-2.94-3.99,7.25-7.65,14.62-11.01,22.05ZM969.06,678.28c-1.62.15-3.18.32-4.71.5.7-.22,1.64-.43,2.94-.66.79-.16,1.57-.32,2.34-.48-.19.21-.38.43-.57.64ZM1094.61,685.78c.45-2.66.47-5.31.22-7.85,1.65,1.42,3.54,2.46,5.6,2.97.98.25,1.9.35,2.84.37-2.81,1.71-5.7,3.26-8.66,4.52Z"/>
    <path class="cls-1" d="M1169.54,735.59c-.39-.12-.99-.3-1.63-.26-8.23-1.05-14.32-1.24-28.75-.4-.29.07-.58.15-.88.22.24-.17.49-.33.73-.5,14.09-8.67,24.09-18.6,25.58-25.68,1.4-6.63-.83-13.39-4.89-14.57-2.42-.7-6.69.17-14.89,2.78-14.46,5.06-34.99,16.17-53.56,29.73,7.63-7.88,11.88-11.69,17.75-16.24,5.63-4.37,9.86-7.69,12.37-9.83.53-.56,1.05-1.12,1.63-1.9,1.11-1.34,2.09-3.18,2.47-5.18.81-4.22-.88-7.71-3.73-8.46-2.02-.53-3.17-.13-6.38,2.3-9.43,7.34-20.65,12.44-31.23,14.31,1,.24,1.61.39,2.41.58,2.82.68,6.11,1.01,11.7,1.48-.83.73-1.66,1.45-2.49,2.18-1.93,1.89-3.67,3.67-7.5,7.55-.22-.09-.4-.2-.67-.26-2-.5-9.88-.76-14.51-.44-6.54.56-13.45,2.24-20.93,5.22,6.64-8.04,10.94-12.86,17.11-18.64.17-.19.34-.39.51-.58.24-.18.48-.35.71-.53,3.72-3.55,6.67-6.11,8.62-7.74,3.91-3.26,4.51-4.28,5.04-7.4.8-4.69-.59-8.97-3.04-9.55-1.22-.29-2.59.32-4.76,1.91-11.54,8.46-20.95,13.8-29.91,16.51,1.37.53,2.58.79,3.19.92,3.43.74,5.72.78,8.56.02-.24.18-.47.36-.71.54-3.98,4.14-7.22,7.56-10.05,10.62-1.92-.26-4.74-.47-7.12-.44-8.93.2-16.02,2.01-24.67,6.55-.29.1-.57.2-.86.3l.52-.82c7.43-10.55,14.08-18.01,25.13-27.74,3.38-3,4.66-4.57,5-6.82.64-4.26-2.29-9.97-5.56-10.65-1.03-.21-2.11.03-3.91.82-2.89,1.02-11.6,5.96-20.03,11.27-12.79,8.17-23.03,15.29-37.69,26.37,19.06-22.07,38.33-38.87,64.89-56.28,10.83-7,11.85-7.91,12.36-11.28.72-4.7-1.16-9.28-3.87-9.85-1.87-.39-3.71.38-6.85,2.74-13.44,9.96-18.39,12.21-31.01,13.06,3.98,1.9,5.81,2.48,10.96,3.48-17.89,11.94-35.92,27.91-51.09,45.61-.42.01-.79.02-1.28.04-6.64.52-12.06,1.27-18.35,2.61-.69-3.08-2.99-4.61-12.95-7.42-9.94-3.02-13.26-4.81-13.03-7.31.11-1.13.8-1.96,2.33-2.9,5.98-4.46,14.35-7.42,22.08-8.1-.02.22-.05.45-.07.68-.21,2.04.02,3.68.39,6.03,2.84-5.31,5.97-7.38,12.75-8.6,8.93-1.8,9.37-1.94,9.85-6.01.45-3.83-1.26-7.11-3.94-7.53-3.08-.5-11.35.49-19,1.89-13.64,2.79-27.67,8.73-35.85,15.04-3.56,2.99-4.73,4.68-5.03,8.08-.15,1.75.1,3.29.71,4.65-1.33.03-2.72.08-3.99.21-9.3,1.17-16.24,3.6-25.19,9.29,4.88-8.18,8.54-13.27,13.74-19.32,3.92-4.59,7.87-9.17,11.85-13.73,1.85-2.3,2.83-4.01,2.98-5.82.36-4.08-2.54-9.01-5.85-9.4-1.64-.19-3.17.54-7.76,3.46-4.16,2.74-7.47,5.11-15.57,11.59-18.73,14.34-25.13,20.01-35.46,29.88,2.9-4.56,4.23-6.5,6.67-9.73,5.51-7.07,12.38-15.13,17.27-20.38,3.77-3.98,4.71-5.48,4.93-8.67.33-4.77-1.7-8.39-4.58-8.67-1.03-.1-1.89.28-4.3,2.34-2.87,2.63-5.72,5.27-8.57,7.92-5.46,4.78-13.13,9.63-19.19,11.93,1.43.11,2.44.41,3.05.46,2.45.19,4.5.12,9.24-.41-2.86,3.44-5.96,7.47-9.05,11.67-.73.07-1.52.14-2.43.21-6.98,1.08-10.91,1.93-22.03,5.58-.27.06-.55.12-.82.18.14-.14.29-.29.43-.43,9.81-11.49,17.29-24.86,17.65-31.92.31-5.91-4.57-11.97-10.16-12.32-5.37-.34-14.51,4.34-26.34,13.58-8.65,6.82-16.07,14.43-21.91,21.9-3.24.46-7.74,1.34-10.78,2.19-6.33,1.89-12.87,4.94-19.78,9.41,5.35-9.27,8.87-14.9,14.09-21.85.14-.22.28-.45.42-.67.21-.22.42-.45.62-.67,3.13-4.26,5.66-7.38,7.34-9.38,3.37-4.01,3.8-5.13,3.87-8.32.11-4.78-1.87-8.72-4.36-8.78-1.24-.03-2.5.84-4.39,2.85-10.1,10.69-18.56,17.86-26.96,22.36,1.43.24,2.66.25,3.28.26,3.47.03,5.72-.4,8.39-1.72-.21.22-.41.45-.62.67-3.28,4.84-5.94,8.84-8.26,12.4-.07.02-.12,0-.19.03-8.13,1.31-14.04,2.86-27.79,7.76-.27.15-.54.31-.81.46.2-.23.4-.46.6-.69,11.86-12.42,19.5-24.89,19.51-32.19.02-6.83-3.49-12.77-7.62-12.76-2.48,0-6.42,2.06-13.81,6.92-12.93,9.01-30.52,25.61-45.73,44.04,5.78-9.81,9.12-14.72,13.88-20.8,4.56-5.84,7.96-10.26,9.96-13.05.4-.69.8-1.39,1.19-2.31.8-1.62,1.38-3.68,1.34-5.73-.07-4.33-2.39-7.24-5.29-7.16-2.07.06-3.09.77-5.7,4.04-7.63,9.8-17.44,17.92-27.29,22.74,1.02-.05,1.63-.08,2.45-.12,2.86-.13,6.11-.74,11.6-1.87-.66.94-1.31,1.88-1.96,2.82-1.48,2.37-2.79,4.57-5.68,9.37-1.7.11-4.94.7-8.02,1.51-9.47,2.54-16.23,6.36-23.98,13.72,6.81-14.6,11.92-23.58,21.48-37.31,1.56-2.36,2.13-3.76,2.05-6.03-.17-4.78-3-8.74-6.31-8.57-1.24.07-2.66.83-4.65,2.77-4.2,3.43-9.17,8.29-17.38,17.06-4.89,5.13-9.74,10.28-14.55,15.46-5.38,5.91-9.76,11.07-15.19,18.18,2.13-4.76,3.22-6.91,4.84-10.25,3.67-6.93,5.11-9.36,14.91-25.64,2.47-3.84,3.19-5.94,3.09-7.76-.21-4.09-3.09-7.76-6.19-7.52-1.86.14-3.46,1.18-5.82,3.43-6.29,5.76-12.34,11.97-23.82,24.28-9.15,10.04-15.16,17.09-23.59,28.34,4.7-9.69,7.72-15.51,12.12-22.38,2.8-4.56,5.62-9.12,8.46-13.67,1.67-2.68,2.16-4.55,1.97-7.28-.32-4.54-2.68-8.65-5.15-8.41-1.03.1-2.21,1.13-4.63,4.82-3.41,4.47-9.29,11.28-14.06,15.94-4.01,3.89-5.75,5.24-9.85,7.79.81-.1,1.22-.15,1.63-.2,3.66-.44,6.29-.97,10.7-2.38-2.76,4.15-5.41,8.61-7.98,13.23-1.38.39-2.96.89-4.52,1.51-8.93,3.15-14.96,6.47-21.54,12.18,2.33-5.36,4.03-9.03,5.05-11.23,1.93-3.46,3.86-6.92,5.81-10.38.85-1.94,1.5-3.86,1.38-5.22-.12-1.36-.61-2.21-1.96-3.42,2.53-3.99,3.33-6.61,3.09-9.32-.52-5.89-4.41-9.76-9.56-9.09-8.04,1.03-26.03,13.4-39.15,27.24-6.26,6.54-11.47,13.13-15.67,19.47-.6.22-1.2.43-1.76.66-8.42,3.52-14.66,7.88-21.66,15.41-.25.2-.49.4-.74.6.09-.33.19-.65.28-.98,4.25-12.78,8.57-22.35,16.47-35.7,2.41-4.1,3.21-6.08,2.93-8.33-.52-4.29-4.81-8.61-8.1-8.03-1.03.18-2,.81-3.49,2.23-2.47,2.05-9.41,9.98-16.01,18.16-9.96,12.52-17.81,23.1-28.79,39.09,12.25-28.06,26.1-51.2,46.66-77.62,8.4-10.67,9.14-11.92,8.72-15.31-.57-4.73-3.56-8.37-6.29-7.9-1.88.32-3.42,1.74-5.76,5.15-10.11,14.46-14.2,18.45-25.96,23.95,4.28.32,6.17.19,11.33-.78-15.7,20.46-30.2,45.92-40.21,71.55-3.6,8.67-7.03,19.2-7.84,24.26-.71,3.18-.81,5.06-.52,6.85.66,4.02,5.19,8.09,8.33,7.38.98-.22,2.01-1.38,2.75-3.17.23-.67.47-1.34.7-2.01,2.09-6.03,7.08-17.32,10.91-24.61,7.16-13.78,14.63-23.63,24.17-32.63,2.21-2.04,3.16-2.68,3.56-2.76.61-.12,1.07.26,1.13.71.06.45-.05,1.16-1.53,3.98-5.58,12.36-12.14,29.62-14.22,37.68-.76,3.16-1.03,5.52-.76,7.32.66,4.49,5.35,8.84,8.68,8.17,2.17-.43,2.79-1.71,4.5-6.89.09-.33.18-.65.27-.98,6.31-16.25,15.27-28.31,26.66-35.96-4.21,8.26-6.22,15.65-5.51,21.14,1.05,8.11,6.94,16.26,11.27,15.51,1.97-.34,4.31-2.59,8.55-7.67,8.87-10.23,18.53-23.26,29.78-39.12.76-1.18,1.53-2.36,2.3-3.55-.49,1.22-.98,2.44-1.47,3.65-8.14,18.16-11.27,27.86-10.86,31.69.3,2.71,1.76,5.01,4.43,7.36,1.75,1.34,3.01,1.84,4.39,1.64,1.58-.23,2.47-1.28,3.55-4.42,8.05-22.12,17.59-34.28,32.55-40.51-1.89,3.72-3.74,7.5-5.47,11.39-4.55,10.42-6.19,16.37-5.86,19.99.42,4.53,4.3,9.52,7.06,9.18,2.18-.27,2.55-.55,4.91-5.65,11.47-24.55,26.31-44.68,38.84-53.39,1.18-.8,2.37-1.36,2.78-1.4.4-.04.62.17.65.62.02.23-.15.93-.7,1.89-.3.56-.61,1.12-.91,1.69-.37.64-.73,1.29-1.1,1.93-8.89,16.61-12.81,25.95-15.46,36.29-.46,1.88-.74,3.51-.64,4.87.17,2.27,1.12,4.23,3.1,6.53,1.54,1.9,2.99,2.66,4.38,2.52,1.39-.14,2.11-1.13,3.32-3.77,8.84-21.03,27.65-46.42,40.01-53.87,1.58-1.02,2.98-1.8,3.38-1.83.61-.04,1.04.39,1.06.84.02.46-.16.93-.73,1.87-.31.55-.63,1.11-.94,1.66-4.76,7.39-12.6,23.73-15.36,31.5-1.73,4.94-2.33,8.41-2.18,10.91.28,4.77,4.36,9.69,7.73,9.43,1.59-.12,2.34-.86,3.78-3.94.35-.94,1.62-3.32,2.7-5.68,4.92-9.48,8.86-15.68,12.91-19.81,6.31-6.88,14.53-11.67,22.65-13.79-2.11,3.5-4.46,7.4-7.76,12.92-3.97,7.05-5.46,9.65-6.78,11.78-1.69,2.83-3.17,5.66-4.85,8.5-3.9,6.86-5.36,9.46-7.22,12.33-.19.24-.75.96-1.3,1.91-9.24,9.99-12.91,14.85-17.38,22.97-3.75,6.7-6.06,13.75-5.84,17.38.25,4.09,3.44,8.62,6.15,8.4,2.72-.21,6.43-5.79,15.99-22.2,3.5-5.95,7.03-11.88,10.6-17.8,4.43-7.34,8.12-13.94,13.35-23.79,1.61,5.85,3.9,8.46,7.67,8.28,5.95-.29,17.1-6.44,26.36-14.21.79-.48,1.18-.95,1.77-1.42,3.16-2.36,4.74-3.54,7.32-5.42,7.94-5.87,10.15-7.71,10.75-7.95,2.6-1.86,5.21-3.26,8.23-4.66,7.69-3.36,16.1-6.43,23.95-8.36-5.29,8.54-8.05,14.17-11.63,22.42-1.4,3.65-2,5.47-1.99,7.75,0,2.05.81,4.1,2.8,6.6,1.79,2.51,3.38,3.42,4.58,3.42,1.59,0,2.18-.45,5.39-5.67,4.62-6.58,7.66-11.1,9.29-13.36,3.64-4.29,7.72-8.56,11.8-11.44,4.76-3.61,10.17-6.23,16.08-8.02-5.23,7.98-8.36,15.47-8.45,21.18-.06,3.64,1.07,7.32,3.19,11.25,2.51,4.17,5.44,6.76,8.02,6.85,1.39.05,3-.58,5.23-2.1,4.46-3.03,10.99-8.23,15.96-12.56.41-.36.82-.72,1.24-1.08.2-.14.41-.28.62-.43,12.47-10.81,26.52-17.78,40.24-20.47-5.11,7.29-9.88,14.66-13.14,20.41-2.18,3.74-2.88,5.75-3,8.47-.23,5.01,2.92,10.23,5.9,10.43,1.59.11,2.43-.75,6.53-6.61,8.84-12.13,14.69-18.96,21.6-25.9,7.55-7.34,15.54-13.68,21.51-16.96,2.34-1.14,4.25-2.09,5.07-2,.41.04.77.54.74.99-.05.68-.26.89-2.28,3.2-3.84,4.86-9.74,13.43-14.06,20.56-5.45,8.86-8.05,15.26-8.34,19.8-.32,5,2.59,9.59,6.15,9.93,1.79.17,3.04-.62,4.61-3.22,11.57-20.13,27.32-31.31,46.03-32.63,1.08-.05,1.8-.24,2.37-.52,2.25.75,5.73,1.49,11.33,2.54,7.04,1.19,8.43,1.62,12.21,2.62-6.32,1.85-9.47,2.8-14.11,4.46-8.02,2.8-20.65,8.1-27.39,11.68-9.68,4.83-12.46,7.3-12.76,11.15-.14,1.81.48,4.17,1.71,6.36.86,1.7,1.98,2.73,3.16,2.87.79.09,1.42-.3,3.12-1.48,3.8-2.55,15.33-8.75,26.55-14.14,17.39-8.27,34.47-13.77,47.05-15.82-.33.41-.69.81-1.01,1.23-5.71,6.89-11.75,15.6-13.86,20.1-1.51,2.75-2.11,4.5-2.31,6.31-.44,4.07,2.77,9.61,5.93,10.11.99.15,2.28-.56,3.44-1.98.4-.55.8-1.1,1.2-1.65,3.58-4.95,11.3-13.8,16.86-19.29,10.44-10.42,20.15-16.98,31.59-21.96,2.64-1.12,3.7-1.37,4.11-1.29.6.12.95.64.88,1.09-.06.45-.36,1.08-2.51,3.21-8.58,9.65-19.38,23.59-23.49,30.47-1.56,2.71-2.44,4.86-2.67,6.66-.56,4.51,2.72,10.39,6.07,11,2.17.4,3.1-.58,6.1-4.87.17-.28.34-.55.51-.83,12.46-15.81,27-24.3,43.11-25.34-6.41,7.28-9.95,12.24-14.66,19.6-1.91,3.31-2.76,4.98-3.09,7.22-.29,2.02.21,4.2,1.82,7.08,1.41,2.84,2.85,4.06,4.03,4.3,1.57.33,2.22,0,6.15-4.49,5.52-5.54,9.18-9.37,11.12-11.26,4.23-3.48,8.88-6.85,13.33-8.85,6.69-3.3,14.2-4.79,22.29-4.8-2.78,2.81-5.86,5.93-10.22,10.38-5.29,5.72-7.27,7.82-8.99,9.51-2.22,2.27-4.23,4.6-6.44,6.87-5.18,5.55-7.14,7.67-9.52,9.92-.23.18-.93.72-1.65,1.49-11.03,7.07-15.58,10.75-21.57,17.37-5,5.44-8.67,11.63-9.19,15.22-.58,4.04,1.61,9.34,4.29,9.9,2.7.57,7.43-3.8,20.06-17.02,4.61-4.78,9.25-9.54,13.92-14.28,5.8-5.87,10.74-11.23,17.83-19.3.4,6.13,2.09,9.32,5.81,10.22,5.87,1.42,17.99-1.38,28.6-6.3.87-.24,1.35-.58,2.02-.87,3.56-1.39,5.34-2.09,8.24-3.18,8.95-3.44,11.48-4.59,12.11-4.65,2.92-1.07,5.75-1.68,8.98-2.18,9.65-1.27,20.3-1.91,29.39-1.05,3.11.23,4.05-.18,4.43-1.95.29-1.32-.51-2.51-2.1-2.99ZM520.45,667.93c-1.17,2.91-5.27,9.43-9.62,15.11-8.11,11.03-17.1,20.21-26.29,27-4.71,3.3-7.53,5.16-9.33,5.47-.8.14-1.45-.22-1.53-.89-.17-1.35,1.07-4.56,3.94-9.64,6.98-11.75,15.86-22.37,26.33-30.8,6.28-5.06,12.7-9.16,15.15-9.5.81-.11,1.49.48,1.58,1.39.04.45-.11.94-.23,1.87ZM677.83,692.78c-5.94,4.29-12.45,7.74-15.26,7.87-1.21.05-2.02-.59-2.06-1.73-.05-1.59,1.28-3.71,4.76-8.86,6.59-9.16,15.1-17.66,24.57-24.5,8.45-5.91,17.83-11.04,20.49-11.07.82,0,1.44.67,1.44,1.58,0,.91-.4,1.83-1.2,2.97-9.31,12.85-22.06,25.86-32.74,33.74ZM780.01,699.78c-1.8-.07-2.58-1-2.54-2.82.11-4.55,5.56-13.95,12.92-22.07,11.75-13.19,25.95-23.1,31.9-22.72,1.64.1,2.41,1.29,2.34,2.89-.18,3.87-5.08,11.99-11.49,19.83-11.35,13.47-26.54,25.11-33.14,24.89ZM1103.01,739.91c-6.66,2.48-13.72,3.98-16.49,3.3-1.18-.29-1.86-1.15-1.66-2.27.27-1.56,2-3.23,6.44-7.25,8.27-7.02,18.3-12.85,28.93-16.79,9.45-3.33,19.65-5.64,22.26-4.9.8.22,1.27,1.06,1.09,1.95-.18.88-.75,1.66-1.78,2.54-11.71,9.82-26.79,18.82-38.8,23.43Z"/>
    <path class="cls-1" d="M386.61,703.11c-.4.09-.93.68-1.59,1.75-.29.38-.57.75-.86,1.13-7.2,10.71-16.49,21.97-27.73,34.13-16.27,17.41-28.14,26.78-39.27,29.93-10.71,3.05-18.05-1.32-20.26-11.71-.89-4.2-1.09-8.13-.4-15.85,1.53-15.7,6.78-32.26,15.71-49.71,17.6-34.7,50.96-65.56,75.26-70.78,6.06-1.33,9.84.89,10.55,5.59.65,4.26-.17,8.83-3.03,15.23-10.36,8.97-15.09,16.57-18.11,29.1q2.62-.83,7.2-2.58c7.58-2.87,11.98-4.51,13.75-5.36,2.76-1.29,3.1-1.83,4.26-3.93,3.11-5.99,5.02-11.71,6.19-18.2,3.05-3.87,4.96-5.42,8.85-8.05-1.69.11-3.38.22-4.21.39-1.04.21-1.83.6-3.29.9-.4.16-.81.32-1.21.48,0-1.39-.26-3.18-.36-3.86-.56-3.81-1.85-6.79-4.99-10.53-6.55-7.88-15.19-10.45-26.1-8-20.35,4.54-45.61,22.87-64.03,47.1-22.59,30.01-34.19,66.61-29.41,88.41,5.05,22.93,24.32,37.71,42.27,32.7,19.92-5.62,42.7-28.65,55.79-55.81,4.26-9.12,7.21-17.91,6.7-21.04-.14-.9-.69-1.7-1.7-1.47Z"/>
    <path class="cls-1" d="M1102.64,668.54c1.64.41,2.77-.02,10-4.47,2.37-1.26,4.5-2.34,5.94-3.14,3.08-1.53,4.11-2.43,4.56-4.88.74-4.01-1.4-8.76-4.71-9.61-1.86-.48-5.21,1.23-11.14,5.57-5.49,4.22-7.84,6.67-8.3,9.35-.55,3.12,1.2,6.57,3.65,7.18Z"/>
    <path class="cls-1" d="M788.62,623.53c1.66.07,2.71-.58,9.16-6.44,2.14-1.73,4.08-3.23,5.37-4.31,2.79-2.14,3.67-3.23,3.76-5.73.15-4.1-2.63-8.35-6-8.51-1.89-.09-4.92,2.27-10.12,7.76-4.76,5.28-6.71,8.17-6.78,10.9-.08,3.19,2.13,6.23,4.62,6.33Z"/>
  </g>
  <g>
    <path class="cls-16" d="M548.69,121.97l24.87-10.76c5.4-2.34,10.16-5.72,14.15-10.04,0,0,43.92-47.61,43.98-47.68.19-.28,1.18-1.81.8-3.64-.48-2.32-3-4.7-7.27-6.88l-17.05-8.69h64.49s19.35.01,19.35.01h4.6s36.26-.01,36.26-.01h0s15.15,0,15.15,0h107.65l-.03,66.6c0,4.34,2.78,8.14,6.92,9.45l7.7,2.43c1.01.32,4.07,1.29,3.91,4.82l-.2,4.39h-325.28ZM793.83,105.92c.42.57.88,1.12,1.38,1.64,1.08,1.11,2.31,2.05,3.67,2.79l19.41,10.62.15-3.77c.05-1.38.11-1.46,3.13-5.69.47-.66.35-1.63-.27-2.15l-10.69-9.08-16.78,5.65ZM610.82,105.92c.42.57.88,1.12,1.38,1.64,1.08,1.11,2.31,2.05,3.67,2.79l19.37,10.6.19-3.8c.07-1.35.12-1.43,3.13-5.64.47-.66.35-1.63-.26-2.15l-10.69-9.08-16.78,5.65ZM734.72,106.25c-1.32,1.74-1.54,4.01-.61,5.94l2.16,4.49,7.13-22.18-8.67,11.74ZM690.75,113.53c-.87-1.89-1.33-3.96-1.33-6.1l.03-17.86s-9.45,19.71-9.45,19.72c.22.37,1.22,1.35,3.8,2.39,1.72.54,3.09.98,3.74,1.18l3.2.67ZM787.69,82.77s26.97-29.23,27.02-29.29c.16-.23,1.18-1.77.79-3.62-.48-2.32-3-4.7-7.27-6.88l-6.56-3.34-13.99,43.13ZM672.64,76.26l10.54-23.15c.62-1.35,2.5-5.39-6.79-10.13l-3.73-1.9-.02,35.18ZM733.33,73.17l15.34-19.68c.26-.37,1.19-1.87.74-3.77-.56-2.31-3.05-4.71-7.04-6.74l-9.45-4.82.41,35Z"/>
    <path class="cls-15" d="M798.37,37.95h-54.03.02s-3.77.01-3.77.01l3.44,1.75c5.03,2.56,8.12,5.73,8.94,9.15.83,3.45-.84,6.09-1.37,6.82l-21.82,28-.53-44.82v-.92h-33.57s-17.2.01-17.2.01h-3.86l3.44,1.75c8.13,4.15,11.06,9.3,8.46,14.92l-17.56,38.57.03-54.32v-.93s-.93,0-.93,0h-44.61l3.44,1.75c5.37,2.74,8.47,5.9,9.19,9.4.79,3.81-1.56,6.72-1.58,6.75h0c-.1.1-.2.21-.32.33l-.99,1.07-3.63,3.93-11.94,12.94-27.24,29.52c-4.34,4.7-9.52,8.38-15.39,10.92l-4.5,1.95-4.11,1.78h56.35l-3.18-1.74-5.46-2.99c-1.68-.92-3.21-2.08-4.54-3.46-1.76-1.82-3.12-3.93-4.05-6.28l22.88-7.7,12.27,10.42c2.07,1.76,2.46,4.87.88,7.08q-2.44,3.41-2.45,3.69l-.05.97h56.55l-8.75-1.84s-.11-.02-.28-.06c-.59-.19-2.1-.66-4.01-1.27-3.2-1.27-5.26-2.82-5.97-4.46-.38-.89-.38-1.81.02-2.82l16.52-34.48-.05,34.07c0,2.9,1.12,5.63,3.17,7.68,2.05,2.05,4.78,3.18,7.68,3.18h29.03l-.64-1.33-1.53-3.19c-1.53-3.18-1.15-6.9.97-9.71l21.96-29.73-13.74,42.75-.39,1.21h66.17l-3.18-1.74-5.46-2.99c-1.68-.92-3.21-2.08-4.54-3.46-1.76-1.82-3.12-3.93-4.05-6.28l22.88-7.7,12.27,10.42c2.07,1.76,2.46,4.87.88,7.08q-2.44,3.41-2.45,3.69l-.04.96h48.39l.04-.89c.03-.71-.4-.85-1.35-1.15l-1.87-.59-5.82-1.84c-5.68-1.79-9.49-7-9.49-12.95l.03-62v-.93s-.93,0-.93,0h-44.61l3.44,1.75c5.37,2.74,8.47,5.9,9.19,9.4.79,3.81-1.56,6.72-1.58,6.75h0c-.09.09-.18.19-.27.29l-.87.95-3.23,3.5-10.78,11.69-23.33,25.29,18.94-58.4.39-1.21h0Z"/>
    <g>
      <path class="cls-15" d="M579,138.81l-.56-1.44h-4.34l-.56,1.44h-2.28l3.48-8.51h3.11l3.43,8.51h-2.27ZM577.74,135.51l-1.26-3.22h-.4l-1.26,3.22h2.93Z"/>
      <path class="cls-15" d="M582.56,130.3h3.63l1.95,5.52,1.95-5.52h3.61v8.51h-1.97l.05-6.37h-.33l-2.48,6.37h-1.66l-2.48-6.37h-.35l.05,6.37h-1.97v-8.51Z"/>
      <path class="cls-15" d="M595.6,130.3h7.27v2h-5.3v1.23h5.03v1.87h-5.03v1.37h5.34v2.04h-7.31v-8.51Z"/>
      <path class="cls-15" d="M614.36,130.3h2.1v8.51h-2.1v-8.51Z"/>
      <path class="cls-15" d="M635.44,138.81l-.56-1.44h-4.34l-.56,1.44h-2.28l3.48-8.51h3.11l3.43,8.51h-2.27ZM634.18,135.51l-1.26-3.22h-.4l-1.26,3.22h2.93Z"/>
      <path class="cls-15" d="M639,130.3h3.51l3.44,6.35h.21l-.05-6.35h2.03v8.51h-3.48l-3.45-6.35h-.22l.04,6.35h-2.03v-8.51Z"/>
      <path class="cls-15" d="M653.48,130.3h3.63l1.95,5.52,1.95-5.52h3.61v8.51h-1.97l.05-6.37h-.33l-2.48,6.37h-1.66l-2.48-6.37h-.35l.05,6.37h-1.97v-8.51Z"/>
      <path class="cls-15" d="M676.85,130.3h7.94v2.17h-2.92v6.34h-2.1v-6.34h-2.92v-2.17Z"/>
      <path class="cls-15" d="M716.2,130.3h2.63l2.14,3.41,2.05-3.41h2.61l-3.59,5.5v3.01h-2.07v-3.01l-3.77-5.5Z"/>
      <path class="cls-15" d="M736.68,130.3h2.1v6.34h4.67v2.17h-6.77v-8.51Z"/>
      <path class="cls-15" d="M744.89,130.3h2.1v8.51h-2.1v-8.51Z"/>
      <path class="cls-15" d="M758.01,130.3h7.94v2.17h-2.92v6.34h-2.1v-6.34h-2.92v-2.17Z"/>
      <path class="cls-15" d="M777.98,138.81l-.56-1.44h-4.34l-.56,1.44h-2.28l3.48-8.51h3.11l3.43,8.51h-2.27ZM776.71,135.51l-1.26-3.22h-.4l-1.26,3.22h2.93Z"/>
      <path class="cls-15" d="M821.09,130.3h2.1v8.51h-2.1v-8.51Z"/>
      <path class="cls-15" d="M832.22,138.81l-.56-1.44h-4.34l-.56,1.44h-2.28l3.48-8.51h3.11l3.43,8.51h-2.27ZM830.96,135.51l-1.26-3.22h-.4l-1.26,3.22h2.93Z"/>
      <path class="cls-15" d="M834.45,130.3h7.94v2.17h-2.92v6.34h-2.1v-6.34h-2.92v-2.17Z"/>
      <path class="cls-15" d="M843.84,130.3h2.1v8.51h-2.1v-8.51Z"/>
      <path class="cls-15" d="M858.51,130.3h3.51l3.44,6.35h.21l-.05-6.35h2.03v8.51h-3.48l-3.45-6.35h-.22l.04,6.35h-2.03v-8.51Z"/>
      <path class="cls-15" d="M672.61,138.96h-3.69c-1.27,0-2.3-1.03-2.3-2.3v-4.05c0-1.27,1.03-2.3,2.3-2.3h3.69c1.27,0,2.3,1.03,2.3,2.3v4.05c0,1.27-1.03,2.3-2.3,2.3ZM668.92,132.26c-.19,0-.35.16-.35.35v4.05c0,.19.16.35.35.35h3.69c.19,0,.35-.16.35-.35v-4.05c0-.19-.16-.35-.35-.35h-3.69Z"/>
      <path class="cls-15" d="M692.51,138.96h-3.69c-1.27,0-2.3-1.03-2.3-2.3v-4.05c0-1.27,1.03-2.3,2.3-2.3h3.69c1.27,0,2.3,1.03,2.3,2.3v4.05c0,1.27-1.03,2.3-2.3,2.3ZM688.82,132.26c-.19,0-.35.16-.35.35v4.05c0,.19.16.35.35.35h3.69c.19,0,.35-.16.35-.35v-4.05c0-.19-.16-.35-.35-.35h-3.69Z"/>
      <path class="cls-15" d="M854.08,138.96h-3.69c-1.27,0-2.3-1.03-2.3-2.3v-4.05c0-1.27,1.03-2.3,2.3-2.3h3.69c1.27,0,2.3,1.03,2.3,2.3v4.05c0,1.27-1.03,2.3-2.3,2.3ZM850.39,132.26c-.19,0-.35.16-.35.35v4.05c0,.19.16.35.35.35h3.69c.19,0,.35-.16.35-.35v-4.05c0-.19-.16-.35-.35-.35h-3.69Z"/>
      <path class="cls-15" d="M806.75,138.96h-3.69c-1.27,0-2.3-1.03-2.3-2.3v-4.05c0-1.27,1.03-2.3,2.3-2.3h3.69c1.27,0,2.3,1.03,2.3,2.3v4.05c0,1.27-1.03,2.3-2.3,2.3ZM803.06,132.26c-.19,0-.35.16-.35.35v4.05c0,.19.16.35.35.35h3.69c.19,0,.35-.16.35-.35v-4.05c0-.19-.16-.35-.35-.35h-3.69Z"/>
      <path class="cls-15" d="M624.69,135.59v1.06c0,.19-.16.35-.35.35h-3.69c-.19,0-.35-.16-.35-.35v-4.05c0-.19.16-.35.35-.35h3.69c.19,0,.35.16.35.35v.8h1.96v-.8c0-1.27-1.03-2.3-2.3-2.3h-3.69c-1.27,0-2.3,1.03-2.3,2.3v4.05c0,1.27,1.03,2.3,2.3,2.3h3.69c1.27,0,2.3-1.03,2.3-2.3v-1.06h-1.96Z"/>
      <path class="cls-15" d="M713.23,135.59v1.06c0,.19-.16.35-.35.35h-3.69c-.19,0-.35-.16-.35-.35v-4.05c0-.19.16-.35.35-.35h3.69c.19,0,.35.16.35.35v.8h1.96v-.8c0-1.27-1.03-2.3-2.3-2.3h-3.69c-1.27,0-2.3,1.03-2.3,2.3v4.05c0,1.27,1.03,2.3,2.3,2.3h3.69c1.27,0,2.3-1.03,2.3-2.3v-1.06h-1.96Z"/>
      <path class="cls-15" d="M754.47,138.96h-5.73v-1.96h5.73c.19,0,.35-.16.35-.35v-.86l-5.01-.72c-.76-.11-1.33-.77-1.33-1.53v-.94c0-1.27,1.03-2.3,2.3-2.3h5.56v1.96h-5.56c-.19,0-.35.16-.35.35v.58l5.01.72c.76.11,1.33.77,1.33,1.53v1.22c0,1.27-1.03,2.3-2.3,2.3Z"/>
      <path class="cls-15" d="M787.28,138.96h-5.73v-1.96h5.73c.19,0,.35-.16.35-.35v-.86l-5.01-.72c-.76-.11-1.33-.77-1.33-1.53v-.94c0-1.27,1.03-2.3,2.3-2.3h5.56v1.96h-5.56c-.19,0-.35.16-.35.35v.58l5.01.72c.76.11,1.33.77,1.33,1.53v1.22c0,1.27-1.03,2.3-2.3,2.3Z"/>
      <path class="cls-15" d="M796.72,138.96h-5.73v-1.96h5.73c.19,0,.35-.16.35-.35v-.86l-5.01-.72c-.76-.11-1.33-.77-1.33-1.53v-.94c0-1.27,1.03-2.3,2.3-2.3h5.56v1.96h-5.56c-.19,0-.35.16-.35.35v.58l5.01.72c.76.11,1.33.77,1.33,1.53v1.22c0,1.27-1.03,2.3-2.3,2.3Z"/>
      <path class="cls-15" d="M732.98,135.59v1.06c0,.19-.16.35-.35.35h-3.69c-.19,0-.35-.16-.35-.35v-4.05c0-.19.16-.35.35-.35h3.69c.19,0,.35.16.35.35v.8h1.96v-.8c0-1.27-1.03-2.3-2.3-2.3h-3.69c-1.27,0-2.3,1.03-2.3,2.3v4.05c0,1.27,1.03,2.3,2.3,2.3h3.69c1.27,0,2.3-1.03,2.3-2.3v-1.06h-1.96Z"/>
      <path class="cls-15" d="M817.48,135.59v1.06c0,.19-.16.35-.35.35h-3.69c-.19,0-.35-.16-.35-.35v-4.05c0-.19.16-.35.35-.35h3.69c.19,0,.35.16.35.35v.8h1.96v-.8c0-1.27-1.03-2.3-2.3-2.3h-3.69c-1.27,0-2.3,1.03-2.3,2.3v4.05c0,1.27,1.03,2.3,2.3,2.3h3.69c1.27,0,2.3-1.03,2.3-2.3v-1.06h-1.96Z"/>
      <path class="cls-15" d="M610.64,138.91h2.35l-2.02-3.03c1.01-.16,1.8-1.03,1.8-2.09v-1.19c0-.62-.23-1.19-.67-1.63-.43-.44-1.01-.68-1.63-.68h-6v8.56h1.96v-2.95h2.21l2,2.99ZM606.43,132.26h4.04c.12,0,.21.06.24.1s.1.12.1.24v1.18c0,.1-.08.17-.18.17h-4.21v-1.7Z"/>
      <path class="cls-15" d="M699.02,135.92h2.21l2,2.99h2.35l-2.02-3.03c1.01-.16,1.8-1.03,1.8-2.09v-1.19c0-.62-.23-1.19-.67-1.63-.43-.44-1.01-.68-1.63-.68h-6v8.56h1.96v-2.95ZM699.02,132.26h4.04c.12,0,.21.06.24.1.04.04.1.12.1.24v1.19c0,.1-.08.17-.18.17h-4.21v-1.7Z"/>
    </g>
    <path class="cls-18" d="M748.02,38.88s.01,0,.02.01h-3.59c12.11,6.17,10.35,13.97,7.9,17.34l-23.47,30.11-.56-47.47h-31.71s-18.13.01-18.13.01c12.11,6.17,10.28,13.1,8.88,16.13l-28.38,62.35h27.69s-13.71-2.86-10.9-9.89l18.31-38.21-.05,38.16c0,5.49,4.44,9.94,9.92,9.94h27.55l-1.53-3.19c-1.67-3.48-1.26-7.59,1.07-10.67l25.32-34.28-15.47,48.13h30.76l25.46-78.49h-49.08Z"/>
    <path class="cls-17" d="M640.03,117.37h46.54s-4.07-1.29-8.4-2.66c-6.03-1.91-10.14-7.51-10.13-13.83l.03-62h-40.75c15.76,8.03,7.91,17.56,7.91,17.56,0,0-30.35,32.89-44.13,47.84-4.4,4.77-9.75,8.57-15.71,11.14l-4.5,1.95h48.25l-5.46-2.99c-1.76-.96-3.37-2.19-4.76-3.63-1.93-1.99-3.43-4.36-4.39-6.96l-.2-.53,24.29-8.17,12.67,10.76c2.46,2.09,2.9,5.71,1.03,8.33-1.21,1.69-2.28,3.19-2.28,3.19ZM631.26,89.15l-25.4,8.58,37.64-38.83,1.43,13.92,20.77,6.04-19.53,7.18.87,15.99-15.77-12.87Z"/>
    <path class="cls-17" d="M823.04,117.37h46.54s-4.07-1.29-8.4-2.66c-6.03-1.91-10.14-7.51-10.13-13.83l.03-62h-40.75c15.76,8.03,7.91,17.56,7.91,17.56,0,0-30.35,32.89-44.13,47.84-4.4,4.77-9.75,8.57-15.71,11.14l-4.5,1.95h48.25l-5.46-2.99c-1.76-.96-3.37-2.19-4.76-3.63-1.93-1.99-3.43-4.36-4.39-6.96l-.2-.53,24.29-8.17,12.67,10.76c2.46,2.09,2.9,5.71,1.03,8.33-1.21,1.69-2.28,3.19-2.28,3.19ZM814.27,89.15l-25.4,8.58,37.64-38.83,1.43,13.92,20.77,6.04-19.53,7.18.87,15.99-15.77-12.87Z"/>
  </g>
</svg>